<svg xmlns="http://www.w3.org/2000/svg" xmlns:xlink="http://www.w3.org/1999/xlink" width="500" zoomAndPan="magnify" viewBox="0 0 375 374.999991" height="500" preserveAspectRatio="xMidYMid meet" version="1.0"><defs><g/><clipPath id="a173512342"><path d="M 1.757812 124 L 187.757812 124 L 187.757812 273.058594 L 1.757812 273.058594 Z M 1.757812 124 " clip-rule="nonzero"/></clipPath><clipPath id="5fd98e0581"><path d="M 83 102.058594 L 100 102.058594 L 100 118 L 83 118 Z M 83 102.058594 " clip-rule="nonzero"/></clipPath></defs><path fill="#ffffff" d="M 15.574219 238.410156 C 19.394531 238.410156 22.503906 235.261719 22.503906 231.390625 C 22.503906 227.523438 19.394531 224.375 15.574219 224.375 C 11.75 224.375 8.640625 227.523438 8.640625 231.390625 C 8.640625 235.261719 11.75 238.410156 15.574219 238.410156 Z M 15.574219 227.324219 C 17.769531 227.324219 19.554688 229.148438 19.554688 231.394531 C 19.554688 233.636719 17.769531 235.464844 15.574219 235.464844 C 13.378906 235.464844 11.59375 233.636719 11.59375 231.394531 C 11.59375 229.148438 13.378906 227.324219 15.574219 227.324219 Z M 15.574219 227.324219 " fill-opacity="1" fill-rule="nonzero"/><path fill="#ffffff" d="M 23.757812 259.199219 C 26.828125 259.199219 29.324219 256.671875 29.324219 253.566406 C 29.324219 250.464844 26.828125 247.9375 23.757812 247.9375 C 20.6875 247.9375 18.191406 250.464844 18.191406 253.566406 C 18.191406 256.671875 20.6875 259.199219 23.757812 259.199219 Z M 23.757812 250.882812 C 25.199219 250.882812 26.375 252.085938 26.375 253.566406 C 26.375 255.046875 25.199219 256.25 23.757812 256.25 C 22.316406 256.25 21.140625 255.046875 21.140625 253.566406 C 21.140625 252.085938 22.316406 250.882812 23.757812 250.882812 Z M 23.757812 250.882812 " fill-opacity="1" fill-rule="nonzero"/><g clip-path="url(#a173512342)"><path fill="#ffffff" d="M 186.21875 223.128906 L 181.332031 223.128906 L 181.332031 200.472656 C 182.925781 199.773438 184.082031 197.90625 184.082031 195.691406 C 184.082031 192.882812 182.238281 190.601562 179.976562 190.601562 L 156.332031 190.601562 C 154.070312 190.601562 152.230469 192.882812 152.230469 195.691406 C 152.230469 198.128906 153.621094 200.167969 155.472656 200.664062 L 155.472656 223.128906 L 143.152344 223.128906 L 143.152344 200.566406 C 144.875 199.964844 146.148438 198.019531 146.148438 195.691406 C 146.148438 194.6875 145.90625 193.761719 145.503906 192.972656 L 145.503906 125.988281 C 145.503906 125.175781 144.839844 124.515625 144.027344 124.515625 L 135.449219 124.515625 C 134.636719 124.515625 133.976562 125.175781 133.976562 125.988281 L 133.976562 153.09375 L 123.828125 153.09375 L 123.828125 152.527344 C 123.828125 151.714844 123.167969 151.054688 122.355469 151.054688 L 116.480469 151.054688 L 116.480469 143.585938 C 118.941406 142.953125 120.769531 140.804688 120.769531 138.238281 C 120.769531 135.171875 118.183594 132.679688 115.003906 132.679688 L 93.5625 132.679688 C 90.386719 132.679688 87.800781 135.171875 87.800781 138.238281 C 87.800781 140.804688 89.628906 142.953125 92.085938 143.585938 L 92.085938 151.054688 L 84.984375 151.054688 C 84.171875 151.054688 83.511719 151.714844 83.511719 152.527344 L 83.511719 153.09375 L 76.410156 153.09375 C 75.59375 153.09375 74.933594 153.753906 74.933594 154.570312 L 74.933594 162.734375 C 74.933594 163.550781 75.59375 164.210938 76.410156 164.210938 L 83.511719 164.210938 L 83.511719 164.777344 C 83.511719 165.589844 84.171875 166.25 84.984375 166.25 L 92.085938 166.25 L 92.085938 178.570312 L 82.898438 190.601562 L 80.464844 190.601562 C 78.203125 190.601562 76.363281 192.882812 76.363281 195.691406 C 76.363281 196.664062 76.597656 197.570312 76.980469 198.347656 L 75.175781 200.714844 C 74.140625 202.292969 72.457031 205.570312 72.792969 209.808594 C 72.984375 212.207031 73.808594 214.566406 75.179688 216.628906 C 75.453125 217.042969 75.914062 217.289062 76.40625 217.289062 L 79.113281 217.289062 L 79.113281 223.125 L 74.226562 223.125 C 73.410156 223.125 72.75 223.785156 72.75 224.601562 L 72.75 226.449219 C 71.964844 226.023438 71.085938 225.757812 70.132812 225.757812 L 28.144531 225.757812 C 27.441406 224.152344 26.453125 222.699219 25.234375 221.476562 L 25.234375 199.492188 C 25.234375 196.496094 27.628906 194.058594 30.578125 194.058594 L 35.035156 194.058594 L 45.140625 209.457031 C 45.199219 209.550781 45.292969 209.617188 45.371094 209.695312 C 45.425781 209.746094 45.464844 209.8125 45.527344 209.859375 L 45.546875 209.871094 C 45.546875 209.871094 45.550781 209.871094 45.550781 209.871094 L 52.371094 214.636719 C 52.625 214.816406 52.917969 214.902344 53.214844 214.902344 C 53.503906 214.902344 53.792969 214.820312 54.042969 214.648438 L 66.871094 205.960938 C 67.367188 205.625 67.609375 205.027344 67.488281 204.441406 L 65.785156 196.214844 C 65.785156 196.214844 65.78125 196.214844 65.78125 196.210938 L 65.777344 196.1875 C 65.761719 196.113281 65.714844 196.058594 65.691406 195.988281 C 65.652344 195.882812 65.628906 195.773438 65.566406 195.675781 L 39.039062 155.253906 L 35.632812 150.058594 C 35.417969 149.726562 35.078125 149.496094 34.6875 149.421875 C 34.300781 149.34375 33.898438 149.425781 33.570312 149.648438 L 28.398438 153.152344 L 25.316406 148.464844 C 25.589844 147.996094 25.605469 147.394531 25.289062 146.914062 L 20.785156 140.070312 C 20.570312 139.738281 20.230469 139.507812 19.839844 139.433594 C 19.449219 139.355469 19.050781 139.4375 18.722656 139.660156 L 12.242188 144.082031 C 11.578125 144.535156 11.398438 145.4375 11.839844 146.109375 L 16.339844 152.953125 C 16.554688 153.28125 16.898438 153.511719 17.285156 153.589844 C 17.378906 153.609375 17.476562 153.617188 17.574219 153.617188 C 17.628906 153.617188 17.683594 153.597656 17.742188 153.589844 L 20.820312 158.28125 L 15.609375 161.8125 C 14.945312 162.265625 14.761719 163.167969 15.203125 163.839844 L 22.25 174.582031 C 13.085938 175.53125 5.914062 183.410156 5.914062 192.957031 L 5.914062 221.480469 C 3.390625 224.007812 1.820312 227.519531 1.820312 231.390625 C 1.820312 235.265625 3.390625 238.773438 5.914062 241.304688 L 5.914062 262.019531 C 3.5625 262.679688 1.820312 264.839844 1.820312 267.425781 C 1.820312 270.53125 4.320312 273.058594 7.390625 273.058594 L 70.132812 273.058594 C 71.160156 273.058594 72.113281 272.757812 72.9375 272.265625 C 73.1875 272.730469 73.660156 273.058594 74.226562 273.058594 L 186.21875 273.058594 C 187.03125 273.058594 187.695312 272.398438 187.695312 271.585938 L 187.695312 224.601562 C 187.695312 223.789062 187.03125 223.128906 186.21875 223.128906 Z M 156.332031 193.550781 L 179.976562 193.550781 C 180.4375 193.550781 181.128906 194.402344 181.128906 195.691406 C 181.128906 196.976562 180.4375 197.832031 179.976562 197.832031 L 156.332031 197.832031 C 155.871094 197.832031 155.179688 196.976562 155.179688 195.691406 C 155.179688 194.402344 155.871094 193.550781 156.332031 193.550781 Z M 158.421875 200.777344 L 178.382812 200.777344 L 178.382812 223.128906 L 158.421875 223.128906 Z M 158.421875 234.9375 L 178.382812 234.9375 L 178.382812 247.980469 C 178.382812 253.332031 173.902344 257.6875 168.402344 257.6875 C 162.898438 257.6875 158.421875 253.332031 158.421875 247.980469 Z M 178.382812 231.992188 L 158.421875 231.992188 L 158.421875 226.078125 L 178.382812 226.078125 Z M 120.242188 241.570312 L 140.199219 241.570312 L 140.199219 247.980469 C 140.199219 253.332031 135.726562 257.6875 130.222656 257.6875 C 124.71875 257.6875 120.242188 253.332031 120.242188 247.980469 Z M 140.199219 238.621094 L 120.242188 238.621094 L 120.242188 226.078125 L 140.199219 226.078125 Z M 120.242188 223.128906 L 120.242188 200.777344 L 140.199219 200.777344 L 140.199219 223.128906 Z M 82.0625 200.777344 L 102.023438 200.777344 L 102.023438 208.453125 L 82.0625 208.453125 Z M 117.292969 202.328125 L 117.292969 214.34375 L 104.96875 214.34375 L 104.96875 202.328125 Z M 104.972656 217.289062 L 117.292969 217.289062 L 117.292969 223.128906 L 104.972656 223.128906 Z M 142.046875 197.832031 L 118.398438 197.832031 C 117.941406 197.832031 117.246094 196.976562 117.246094 195.691406 C 117.246094 194.402344 117.941406 193.550781 118.398438 193.550781 L 142.046875 193.550781 C 142.503906 193.550781 143.199219 194.402344 143.199219 195.691406 C 143.199219 196.976562 142.503906 197.832031 142.046875 197.832031 Z M 116.480469 166.253906 L 122.355469 166.253906 C 123.167969 166.253906 123.828125 165.59375 123.828125 164.777344 L 123.828125 164.210938 L 133.976562 164.210938 L 133.976562 190.601562 L 125.671875 190.601562 L 116.480469 178.570312 Z M 136.925781 127.464844 L 142.550781 127.464844 L 142.550781 190.667969 C 142.382812 190.640625 142.21875 190.601562 142.046875 190.601562 L 136.925781 190.601562 Z M 133.976562 156.042969 L 133.976562 161.261719 L 123.828125 161.261719 L 123.828125 156.042969 Z M 90.75 138.238281 C 90.75 136.800781 92.011719 135.628906 93.5625 135.628906 L 115.003906 135.628906 C 116.554688 135.628906 117.816406 136.800781 117.816406 138.238281 C 117.816406 139.675781 116.554688 140.847656 115.003906 140.847656 L 93.5625 140.847656 C 92.011719 140.847656 90.75 139.675781 90.75 138.238281 Z M 95.039062 143.796875 L 113.53125 143.796875 L 113.53125 151.054688 L 95.039062 151.054688 Z M 77.886719 161.261719 L 77.886719 156.042969 L 83.511719 156.042969 L 83.511719 161.261719 Z M 86.460938 162.738281 L 86.460938 154.003906 L 120.878906 154.003906 L 120.878906 163.304688 L 86.460938 163.304688 Z M 94.734375 179.964844 C 94.933594 179.707031 95.039062 179.390625 95.039062 179.070312 L 95.039062 166.253906 L 113.53125 166.253906 L 113.53125 179.070312 C 113.53125 179.390625 113.636719 179.707031 113.832031 179.964844 L 121.957031 190.601562 L 118.398438 190.601562 C 116.136719 190.601562 114.296875 192.882812 114.296875 195.691406 C 114.296875 197.144531 114.796875 198.453125 115.589844 199.378906 L 106.921875 199.378906 C 107.714844 198.449219 108.214844 197.144531 108.214844 195.691406 C 108.214844 192.886719 106.375 190.601562 104.113281 190.601562 L 86.609375 190.601562 Z M 80.464844 193.550781 L 104.113281 193.550781 C 104.570312 193.550781 105.265625 194.402344 105.265625 195.691406 C 105.265625 196.976562 104.570312 197.832031 104.113281 197.832031 L 80.464844 197.832031 C 80.007812 197.832031 79.3125 196.976562 79.3125 195.691406 C 79.3125 194.402344 80.007812 193.550781 80.464844 193.550781 Z M 77.234375 214.34375 C 76.570312 213.1875 75.894531 211.5625 75.738281 209.574219 C 75.46875 206.214844 76.816406 203.597656 77.582031 202.417969 L 79.078125 200.457031 C 79.089844 200.464844 79.101562 200.46875 79.113281 200.472656 L 79.113281 214.34375 Z M 82.0625 211.402344 L 102.023438 211.402344 L 102.023438 223.128906 L 82.0625 223.128906 Z M 82.0625 226.078125 L 102.023438 226.078125 L 102.023438 247.980469 C 102.023438 253.332031 97.546875 257.6875 92.042969 257.6875 C 86.542969 257.6875 82.0625 253.332031 82.0625 247.980469 Z M 60.554688 239.621094 L 26.652344 239.621094 C 27.234375 238.8125 27.738281 237.949219 28.144531 237.023438 L 70.132812 237.023438 C 71.085938 237.023438 71.96875 236.757812 72.75 236.332031 L 72.75 262.484375 C 71.96875 262.058594 71.085938 261.792969 70.132812 261.792969 L 67.515625 261.792969 L 67.515625 246.667969 C 67.515625 242.78125 64.394531 239.621094 60.554688 239.621094 Z M 70.132812 228.710938 C 71.550781 228.710938 72.75 229.9375 72.75 231.394531 C 72.75 232.847656 71.550781 234.078125 70.132812 234.078125 L 29.0625 234.078125 C 29.230469 233.207031 29.324219 232.3125 29.324219 231.394531 C 29.324219 230.476562 29.230469 229.578125 29.0625 228.710938 Z M 53.226562 211.640625 L 48.972656 208.667969 L 63.332031 198.941406 L 64.398438 204.074219 Z M 46.785156 206.589844 L 21.890625 168.648438 L 37.40625 158.140625 L 62.300781 196.082031 Z M 19.144531 142.941406 L 21.5625 146.617188 C 21.367188 146.953125 21.316406 147.351562 21.417969 147.734375 L 18.582031 149.667969 C 18.277344 149.433594 17.898438 149.328125 17.519531 149.371094 L 15.101562 145.699219 Z M 20.28125 152.082031 L 22.960938 150.25 L 25.953125 154.804688 L 23.265625 156.625 Z M 33.988281 152.925781 L 35.789062 155.671875 L 20.273438 166.183594 L 18.46875 163.4375 Z M 8.863281 192.957031 C 8.863281 184.394531 15.707031 177.429688 24.121094 177.429688 L 33.101562 191.113281 L 30.578125 191.113281 C 26.003906 191.113281 22.28125 194.871094 22.28125 199.496094 L 22.28125 219.230469 C 20.292969 218.097656 18.007812 217.445312 15.570312 217.445312 C 13.136719 217.445312 10.851562 218.101562 8.863281 219.230469 Z M 4.773438 231.390625 C 4.773438 225.328125 9.617188 220.394531 15.574219 220.394531 C 21.527344 220.394531 26.375 225.328125 26.375 231.390625 C 26.375 237.457031 21.527344 242.390625 15.574219 242.390625 C 9.617188 242.390625 4.773438 237.457031 4.773438 231.390625 Z M 15.574219 245.339844 C 18.644531 245.339844 21.472656 244.300781 23.765625 242.570312 L 60.558594 242.570312 C 62.769531 242.570312 64.566406 244.410156 64.566406 246.667969 L 64.566406 261.796875 L 8.863281 261.796875 L 8.863281 243.554688 C 10.851562 244.6875 13.136719 245.339844 15.574219 245.339844 Z M 70.132812 270.109375 L 7.390625 270.109375 C 5.972656 270.109375 4.773438 268.882812 4.773438 267.425781 C 4.773438 265.972656 5.972656 264.742188 7.390625 264.742188 L 70.132812 264.742188 C 71.550781 264.742188 72.75 265.972656 72.75 267.425781 C 72.75 268.882812 71.550781 270.109375 70.132812 270.109375 Z M 184.742188 270.109375 L 75.703125 270.109375 L 75.703125 226.078125 L 79.113281 226.078125 L 79.113281 247.980469 C 79.113281 254.960938 84.914062 260.636719 92.042969 260.636719 C 99.171875 260.636719 104.972656 254.960938 104.972656 247.980469 L 104.972656 226.078125 L 117.292969 226.078125 L 117.292969 247.980469 C 117.292969 254.960938 123.09375 260.636719 130.222656 260.636719 C 137.351562 260.636719 143.152344 254.960938 143.152344 247.980469 L 143.152344 226.078125 L 155.472656 226.078125 L 155.472656 247.980469 C 155.472656 254.960938 161.273438 260.636719 168.402344 260.636719 C 175.53125 260.636719 181.332031 254.960938 181.332031 247.980469 L 181.332031 226.078125 L 184.742188 226.078125 Z M 184.742188 270.109375 " fill-opacity="1" fill-rule="nonzero"/></g><g clip-path="url(#5fd98e0581)"><path fill="#ffffff" d="M 91.417969 117.257812 C 95.777344 117.257812 99.324219 113.847656 99.324219 109.65625 C 99.324219 105.46875 95.777344 102.058594 91.417969 102.058594 C 87.058594 102.058594 83.511719 105.46875 83.511719 109.65625 C 83.511719 113.847656 87.058594 117.257812 91.417969 117.257812 Z M 91.417969 105.007812 C 94.152344 105.007812 96.375 107.09375 96.375 109.65625 C 96.375 112.222656 94.152344 114.308594 91.417969 114.308594 C 88.683594 114.308594 86.460938 112.222656 86.460938 109.65625 C 86.460938 107.09375 88.683594 105.007812 91.417969 105.007812 Z M 91.417969 105.007812 " fill-opacity="1" fill-rule="nonzero"/></g><path fill="#ffffff" d="M 96.375 123.949219 C 96.375 127.011719 98.960938 129.503906 102.140625 129.503906 C 105.316406 129.503906 107.902344 127.011719 107.902344 123.949219 C 107.902344 120.882812 105.320312 118.390625 102.140625 118.390625 C 98.960938 118.390625 96.375 120.886719 96.375 123.949219 Z M 102.140625 121.339844 C 103.691406 121.339844 104.953125 122.507812 104.953125 123.949219 C 104.953125 125.386719 103.691406 126.558594 102.140625 126.558594 C 100.585938 126.558594 99.328125 125.386719 99.328125 123.949219 C 99.328125 122.507812 100.585938 121.339844 102.140625 121.339844 Z M 102.140625 121.339844 " fill-opacity="1" fill-rule="nonzero"/><g fill="#ffffff" fill-opacity="1"><g transform="translate(189.957433, 215.556642)"><g><path d="M 4.195312 0 L 35.847656 0 L 35.847656 -0.0664062 L 43.121094 -7.339844 L 43.121094 -15.203125 L 35.78125 -22.542969 L 11.535156 -22.542969 L 11.535156 -30.40625 L 43.121094 -30.40625 L 43.121094 -37.746094 L 11.46875 -37.746094 L 11.46875 -37.679688 L 4.195312 -30.40625 L 4.195312 -22.542969 L 11.535156 -15.203125 L 35.78125 -15.203125 L 35.78125 -7.339844 L 4.195312 -7.339844 Z M 4.195312 0 "/></g></g></g><g fill="#ffffff" fill-opacity="1"><g transform="translate(237.271325, 215.556642)"><g><path d="M 4.195312 0 L 11.535156 0 L 11.535156 -15.203125 L 37.089844 -15.203125 L 37.089844 0 L 44.429688 0 L 44.429688 -30.40625 L 37.089844 -37.746094 L 11.535156 -37.746094 L 4.195312 -30.40625 Z M 11.535156 -22.542969 L 11.535156 -30.40625 L 37.089844 -30.40625 L 37.089844 -22.542969 Z M 11.535156 -22.542969 "/></g></g></g><g fill="#ffffff" fill-opacity="1"><g transform="translate(285.895844, 215.556642)"><g><path d="M 11.535156 0 L 35.125 0 L 35.125 -7.339844 L 11.535156 -7.339844 L 11.535156 -37.746094 L 4.195312 -37.746094 L 4.195312 -7.339844 Z M 11.535156 0 "/></g></g></g><g fill="#ffffff" fill-opacity="1"><g transform="translate(325.214864, 215.556642)"><g><path d="M 11.535156 0 L 35.78125 0 L 43.121094 -7.339844 L 43.121094 -30.40625 L 35.78125 -37.746094 L 11.535156 -37.746094 L 11.535156 -45.085938 L 4.195312 -45.085938 L 4.195312 -7.339844 Z M 11.535156 -7.339844 L 11.535156 -30.40625 L 35.78125 -30.40625 L 35.78125 -7.339844 Z M 11.535156 -7.339844 "/></g></g></g></svg>